<?xml version="1.0" encoding="utf-8"?>
<svg version="1.1" id="Layer_1" xmlns="http://www.w3.org/2000/svg" xmlns:xlink="http://www.w3.org/1999/xlink" x="0px" y="0px"
	 viewBox="0 0 428 428" xml:space="preserve">
<style type="text/css">
	.st0{fill:#8C6782;}
	.st1{fill:#1E293F;}
	.st2{fill:#A97675;}
	.st3{fill:#A65A29;}
</style>
<g>
	<path class="st0" d="M186.3,319.1c-0.7,0.8-6.9,6.1-3.6,18c0.1,0.4,0.7,0.3,0.7-0.1c-0.1-3.4,1.3-7.9,3.5-10.1
		c0.2-0.2,0.6-0.1,0.6,0.2c0.8,3.7,0.9,8.7,7.3,13.6c0.3,0.2,0.6-0.2,0.5-0.5c-1.1-2.1-3.7-7.7-3.2-11.5c0-0.4,0.6-0.4,0.7-0.1
		c1.1,3,4.4,10.6,11.5,12.3c0.4,0.1,0.7-0.4,0.4-0.6c-4.1-2.9-6.8-7.5-7.4-10.4c-0.1-0.3,0.3-0.6,0.6-0.3c1.9,1.7,4.6,5.5,11.5,7.5
		c0.4,0.1,0.7-0.4,0.3-0.7c-2.6-1.9-3.8-3.3-6.2-5.5c-1.6-1.5-3.3-3.9-3.6-6.4c-0.2-1.4,1.3-3.3,1.3-4.2c0.1-2.6-4.3-1.9-6.2-2.4
		c0,0-0.1,0-0.1,0l-6.4-0.9C188.4,317.1,186.4,319,186.3,319.1z"/>
	<path class="st0" d="M238.7,317.8c-0.5,1-3.7,8.1,2.5,18.7c0.2,0.4,0.8,0.1,0.7-0.3c-1-3.2-2.1-8.4-0.6-11.1c0.2-0.3,0.5-0.2,0.7,0
		c1.7,3.4,3.2,8.1,10.6,11.3c0.3,0.1,0.6-0.3,0.3-0.6c-1.6-1.7-5.6-6.5-6.1-10.2c-0.1-0.4,0.5-0.6,0.7-0.3c1.8,2.6,7,9.1,14.3,8.9
		c0.4,0,0.5-0.6,0.2-0.7c-4.7-1.7-8.5-5.4-9.9-8.2c-0.2-0.3,0.2-0.6,0.5-0.5c2.2,1.2,8.6,4.2,15.8,4.3c0.4,0,0.5-0.6,0.1-0.7
		c-3-1.1-6-2.3-8.9-3.8c-2-1-5.4-2.8-6.4-5.2c-0.5-1.3,0.4-3.6,0.2-4.4c-0.6-2.5-4.6-0.7-6.7-0.7c0,0-0.1,0-0.1,0l-6.4,0.8
		C240.2,315.4,238.7,317.7,238.7,317.8z"/>
	<path class="st0" d="M298,299.7c0.2,1.1,2.1,8.7,13.6,13.1c0.4,0.2,0.7-0.4,0.3-0.6c-2.8-1.9-6.9-5.3-7.4-8.3
		c0-0.3,0.3-0.5,0.6-0.4c3.5,1.6,7.5,4.4,15.3,2.3c0.3-0.1,0.2-0.6-0.1-0.7c-2.3-0.4-8.4-1.6-11.1-4.2c-0.3-0.3,0-0.7,0.4-0.6
		c3.1,1,11.1,2.8,16.7-1.9c0.3-0.2,0.1-0.8-0.3-0.7c-4.7,1.5-10.1,1.1-12.8-0.3c-0.3-0.2-0.3-0.6,0.1-0.7c2.5-0.5,9.4-2.1,15.1-6.4
		c0.3-0.2,0.1-0.8-0.3-0.6c-3.1,1-6.2,1.9-9.4,2.5c-2.2,0.4-6,1.1-8.2-0.1c-1.2-0.7-1.9-3-2.6-3.6c-2-1.6-4.1,2.3-5.7,3.6
		c0,0-0.1,0.1-0.1,0.1l-4.5,4.6C297.7,296.9,298,299.7,298,299.7z"/>
	<path class="st0" d="M330.4,276.3c0.4,1,4.1,7,15.8,9.8c0.5,0.1,0.7-0.5,0.3-0.8c-3-1.5-5.8-3.1-6.8-5.9c-0.1-0.3,0.2-0.6,0.5-0.5
		c3.7,1.1,6.9,2.2,14-0.8c0.3-0.1,0.1-0.7-0.2-0.7c-2.3,0-9,0.5-12.2-1.6c-0.4-0.2-0.2-0.8,0.3-0.7c3.3,0.5,11.3,1,16-4.3
		c0.3-0.3-0.1-0.8-0.5-0.6c-4.4,2.1-9.6,2.4-12.4,1.6c-0.4-0.1-0.4-0.6,0-0.8c2.5-0.9,8.8-2.3,13.7-7.4c0.3-0.3-0.1-0.8-0.4-0.6
		c-2.9,1.5-5.8,2.8-8.9,3.9c-2.1,0.7-5.6,0.8-8-0.1c-1.3-0.5-2.3-2.7-3.1-3.2c-2.2-1.3-3.7,2.9-5.1,4.4c0,0-0.1,0.1-0.1,0.1
		l-3.8,5.2c0,0,0,0,0,0C329.6,273.6,330.3,276.2,330.4,276.3z"/>
	<path class="st0" d="M374.1,251.5c0.6,0.9,5.5,7,17.8,6.3c0.4,0,0.5-0.6,0.1-0.7c-3.3-0.6-8.5-2-10.1-4.5c-0.2-0.3,0-0.6,0.3-0.6
		c3.8,0,8.7,0.9,14.9-4.3c0.3-0.2,0-0.7-0.4-0.6c-2.3,0.6-8.3,2-11.9,0.8c-0.4-0.1-0.3-0.7,0.1-0.7c3.2-0.4,11.3-2,14.5-8.7
		c0.2-0.3-0.2-0.7-0.5-0.5c-3.7,3.4-8.7,5.1-11.8,5c-0.3,0-0.5-0.5-0.2-0.7c2.1-1.5,7.7-5.8,11.1-12.1c0.2-0.4-0.3-0.7-0.6-0.5
		c-2.4,2.2-4.8,4.3-7.5,6.2c-1.8,1.3-5,3.5-7.5,3.3c-1.4-0.1-3-2-3.8-2.2c-2.5-0.6-2.8,3.8-3.7,5.6c0,0,0,0.1,0,0.1l-2.2,6.1
		C372.7,249,374.1,251.4,374.1,251.5z"/>
	<path class="st1" d="M383,226.8c-0.4-1.1-0.8-2.2-1.3-3.3c-3.9-8.5-10.2-15.5-15.1-23.4c-7.3-11.9-8.1-25.2-12.8-38
		c-9.8-27-36.8-36.7-63.2-39.2c-5.2-0.5-10.5-0.8-15.7-0.9c-0.3,0-0.5-0.5-0.2-0.7c7.4-4.8,11.5-13.5,11.9-22.2
		c0.4-8-2.1-15.9-6.1-22.8c-7.2-12.5-19.9-22.1-34.2-23.7c-20.6-2.4-40,11.6-51.8,28.6s-18.2,37.2-27.5,55.7
		c-1.4,2.9-3.1,5.8-5.6,7.7c-4.4,3.3-10.6,2.8-15.8,0.8c-5.4-2.1-10.2-5.8-15.6-8c-0.2-0.1-0.5-0.1-0.7-0.1
		c-1.6,0.1-1.8,1.1-1.9,2.1c-0.4,10.4,0.1,16.4-2.8,30.1c-0.3,1.4-0.2,3,0.5,4.3c1.2,1.9,3.9,2.2,6.1,2.2c8.3,0,16.7-0.6,25-1.7
		c0.4,0,0.5,0.4,0.3,0.6c-5.8,4.5-11.8,8.8-18,12.8c-3.3,2.1-6.7,4.1-10.1,5.9c-3.2,1.7-6.6,3.8-10.2,4.4c-3.7,0.7-7.5-0.5-11.2-1.1
		c-8.1-1.5-17.2-1.8-26.2,0.4c-0.3,0.1-0.6-0.3-0.4-0.6c4.5-7.8,1.6-13-4.5-16.5c-6.2-3.6-15.4-1.1-18.5,5.3
		c-3,6.2-0.6,14.5,7.2,16.5c0.3,0.1,0.3,0.4,0.1,0.6c-4.3,2.8-8.5,6.2-12.2,9.7c-7.8,7.4-13.7,18.4-12.2,29.4
		c0.5,3.7,1.7,7.7,4.2,10.6c2.1,2.4,5.1,3.7,8,4.9c0.5,0.2,0.8,0.7,0.8,1.3c-0.1,4.7-0.4,9.6,0.7,14.1c1.1,4.1,2.8,8.1,5.1,11.7
		c1.1,1.8,2.4,3.5,3.8,5c4,4.6,9.1,8.3,14.7,10.7c6.9,3,14.4,4.4,21.8,4.2c3.3-0.1,6.6-0.5,9.8-1.1c3-0.6,6-1.6,9.1-2
		c2.2-0.3,2,0.9,1.5,2.6c-1.4,4.6,0.2,9.8,3.3,13.3c1.1,1.2,2.4,2.2,3.9,3c13.6,7,27.7-4.8,37.2-13.4c4.5-4.1,9.1-9,16-8.5
		c1.5,0.1,3,0.6,4.2,1.5c5.7,4.3,2,10.4,3.3,15.8c1.1,4.5,5.7,7.6,10.3,8c4.6,0.4,9.2-1.4,13.2-3.8c2.5-1.5,5-3.3,7.9-3.7
		c3.6-0.5,7,1.3,10.2,2.7c6.4,2.9,13.5,5,20.6,2.5c1.3-0.4,2.5-1.1,3.6-1.9c7.3-5.4,5.7-13.1,4-20c-1.2-4.8-2.4-9.7-3.5-14.5
		c0-0.5-0.3-1.1-0.4-1.6c-0.1-0.6-0.3-1.2-0.4-1.8c-0.3-1.2-0.6-2.4-0.9-3.5c-0.3-1.1-0.6-2.3-0.8-3.4c-0.2-0.6-1.5-3.9-0.2-4
		c0.3,0,0.8,0.4,1.1,0.6c9.8,6.7,16.3,17.3,26.5,23.4c7.8,4.7,19.5,7.2,26.6-0.1c6.5-6.5,5.5-17.2,3.7-26.3
		c3.8,7.4,13.2,10,20.7,7.8c5.1-1.5,9.3-5.3,12.1-9.7c1.3-2.1,2.4-4.4,3.1-6.8c0.5-1.9,0.9-3.9,2-5.5c1.3-1.8,3.4-1.9,5.4-1.8
		c8.9,0.7,18.9,2.7,25.9-2.8C384.8,244.1,385.5,234.7,383,226.8z"/>
	<path class="st2" d="M130,144.8c0.2-1.9,0.9-3.4,2.8-2.4c3.8,2,7.6,4.2,11.8,5.5c4.4,1.3,9,1.7,13.1,3.8c4.8,2.4,6.4,8.8,4.9,13.6
		c-1.4,4.5-8.2,5.5-12.1,6.3c-5.4,1.1-11,1.3-16.5,0.9c-3.5-0.3-7.1,0.2-6.4-4.2c0.5-2.8,1.6-5.5,2-8.3
		C130.3,154.9,129.4,149.9,130,144.8z"/>
	<path class="st1" d="M83.8,279.8c0-3.5,1.5-5.7,5.2-5.8c4.4-0.1,7.6,2.7,7.6,6.3c0,2.7-3.6,6.3-6.4,6.4
		C86.6,286.8,83.8,283.8,83.8,279.8z"/>
	<path class="st3" d="M108.9,229.9c-0.3,0-0.6,0-0.9-0.1c-6-0.4-12.4-0.1-18.4,1c-11,2-19.2,8.2-27.3,15.5c-2.7,2.4-5,5.1-8.5,6.2
		c-6.6,2.1-10.2-3.1-11.2-9c-1.3-7.4,0.9-14.8,4.8-21.1c4.7-7.4,11.2-12.7,18.3-17.6c2.5-1.8,3.2-4.3,0-5.3
		c-3.7-1.2-6.8-3.5-7.2-7.7c-0.4-3.7,1.8-7.5,4.9-9.4c3.8-2.3,8.8-2.2,12.5,0.3c4.6,3.1,5.5,7.5,3,12.1c-1,1.8-2.6,3.2-1.4,5
		c0.5,0.8,3.9-0.4,5.4-0.7c15.4-3,34.4-1.3,45.5,11.3c2.2,2.5,3.9,5.5,3.4,8.9c-0.5,3.9-3.4,7.3-7,8.8
		C119.8,230.2,114.2,230.1,108.9,229.9z"/>
	<path class="st0" d="M378.8,227.4c-2.6-6.7-6.5-12.8-11-18.4c-3.2-4-7.4-7.4-9.7-12.1c-2.5-4.9-2.7-10.8-3.4-16.1
		c-0.8-5.4-1.8-10.6-3.9-15.7c-13.8-34.6-52.7-41.5-85.9-37.2c-24,3.1-46.9,12.2-67,25.7c-24.3,16.4-48.5,31.7-74.7,45.1
		c-2.2,1.1-2.2,2.8,0,4c5.7,3,10.2,9.5,10,16.2c-0.1,6.1-4.2,10.4-9.9,12.1c-7.7,2.3-16.6,0.8-24.6,1.5c-8.6,0.7-17.4,2.6-24.8,7.4
		c-1.4,0.9-10.2,7.8-8.6,8.9c1.7,1.3,3.9,5,5.5,6.6c0.5,0.5,3-0.5,3.6-0.6c3.9-0.5,8.2,0.9,10.4,4.4c1.9,2.9,3.1,1.6,6.3,1.5
		c2.3-0.1,3.2-3.2,4.3-4.7c2-2.6,5.6-3.9,8.8-3.7c3,0.2,4.5,0.7,6.2-2.6c1.8-3.4,4-6.6,6.4-9.6c2.6-3.1,5.6-6.3,9.5-8
		c3.7-1.6,8.8-1.9,12,1c2.9,2.7,3.6,10.4-1.3,11.4c-1.6,0.3-4.9-0.6-4.4-2.8c0.2-0.9,1-1.4,2-1.3c1.4,0.2,1.9,0,2-1.5
		c0.2-2.9-1.6-5-4.5-5.1c-4.4-0.1-9.9,4.1-13,8.3c-1.4,2-3,4.6-4.2,6.7c-1.2,2.1-2.1,3.8-3.1,5.9c-0.6,1.2-0.6,2.4-0.3,3.7
		c0.7,2.7,0.2,5.6-1.4,7.9c-3.5,4.9-11.1,5.5-15.1,0.8c-3.3-4-7.1-3.8-10.2,0.6c-2.7,3.7-8.1,5.9-12.5,3.8
		c-4.4-2.1-6.7-8.4-4.5-12.7c0.7-1.4-3.7-7.5-5.2-7.5c-0.4,0-0.8,0.3-1.1,0.5c-2.5,1.5-4.1,4.5-5.1,7.2c-2.9,7.9,0.2,17.2,4.5,24
		c4.1,6.6,10.2,11.7,17.2,14.9c0.7,0.3,1.5,0.7,2.3,1c3.5,1.4,7.1,2.3,10.8,2.9c3.8,0.5,7.9,0.7,11.7,0.1c7.9-1.2,15.7-3.1,23.4-5
		c15.3-3.8,30.8-7.5,46.7-5.3c0.6,0.1,1.1,0.2,1.7,0.3c5.9,1,10.8,4.1,16.1,6.6c9,4.2,18.1,8.3,27.2,12.5c6.8,3.2,13.8,6.2,21.1,8
		c4.5,1.1,10.4-0.2,13.6-3.6c3.6-3.7,2.7-9.2,2-13.9c-0.8-5.5-2.3-10.8-3.5-16.2c-1.3-5.4-3-10.1-2.6-15.6c0.2-3.5,3.5-1.6,4.6-0.9
		c3.4,2.1,6.4,5.1,9.3,8.1c4.1,4,8.1,8.1,12.6,11.6c1.3,1,2.6,1.9,3.9,2.8c4.5,2.9,9.2,5.8,14.8,4.9c6.8-1,12.3-4.1,13-13.4
		c0.6-8-1.7-15.9-3.4-23.6c-0.2-0.8-0.8-2.9-0.2-3.6c0.6-0.6,1.2,0.3,1.6,1c3,4.7,5.1,10.3,9.5,14c3.9,3.2,9.1,4.7,14,3.1
		c5.5-1.7,9.5-6.5,11.8-11.6c0.4-0.8,0.7-1.7,1-2.6c3.2-9.2,2.9-19.1,4.1-28.6c0.2-1.3,0.3-2.6,0.7-3.9c0.1-0.4,0.6-0.9,0.9-0.3
		c0.4,0.7,0.3,2.8,0.2,4c-0.1,3.3,0.1,6.5,0.1,9.8c0.1,1.5,0.2,3,0.6,4.4c2,6.5,11.8,6,17.2,6c13.8,0,16.7-8.3,15.1-18.6
		C379.8,230.5,379.3,228.9,378.8,227.4z M89,287.3c-3.7,0.1-6.5-3-6.5-6.9c0-3.5,1.5-5.7,5.2-5.8c4.4-0.1,7.6,2.7,7.6,6.3
		C95.4,283.7,91.8,287.3,89,287.3z"/>
	<path class="st0" d="M199.5,320c-1.5,0-3-0.3-4.3-1c-3-1.5-4.6-4.4-5-7.7c-0.2-1.9-0.5-8,1.5-9.2c0.4-0.2,0.8-0.2,1.2-0.2
		c1.1,0.1,2.2,0.5,3.2,1c5.9,2.6,12,5.5,17.4,8.9c1.1,0.7,1.4,1.5,0.3,2.3C210.1,316.7,204.5,320,199.5,320z"/>
	<path class="st0" d="M122.4,308.4c-0.3-2,0-5.3,1.1-7.2c1.7-2.9,9.2-3.9,12.9-4.5c10-1.7,20-3.3,30.1-3.5c1.2,0,5,0.2,4.9,1.9
		c-0.1,1.1-1.9,2.5-2.6,3.2c-0.9,0.8-1.9,1.6-2.9,2.4c-4.1,3.6-8.4,6.9-12.7,10.2c-6.7,5-15.1,9.3-22.7,7.2
		C126,316.8,123.1,312.8,122.4,308.4z"/>
	<path class="st2" d="M170.8,165.3c-1.7,0.6-3.5,0.8-3.8-1.2c-0.4-2.4-0.4-4.9-0.8-7.4c-0.3-1.5-0.8-2.9-1.6-4.2
		c-0.8-1.3-2.8-2-1.6-3.6c6.1-8.2,10.9-20.6,15.4-29.6c6.6-13.3,12.4-27,21.5-38.8c10.3-13.3,23.1-23.1,40.9-23.2
		c14.8-0.1,26.2,6.6,34,19.3c3.5,5.8,6.3,11.8,7.5,18.5c2,11.9-7.3,25.2-19.2,28c-23.8,5.6-46.5,14.1-67.6,26.7
		c-4.4,2.6-8.8,5.4-13,8.3C178.7,160.6,175.1,163.7,170.8,165.3z"/>
	<path class="st0" d="M123,315.3c-0.9,0.5-7.2,2.9-7.9,15.2c0,0.4,0.6,1.7,0.7,1.3c0.7-2.4,1.2-4.2,2.5-6.3c0.6-0.9,1.3-2,2.2-2.5
		c0.6-0.3,0.6,1.6,0.6,1.9c0.1,4.7,0.4,9,3.3,12.9c0.1,0.1,0.1,0.2,0.2,0.2c0.3,0.1,0.4-0.4,0.4-0.7c-0.3-1.9-0.8-3.9-1.1-5.8
		c-0.2-1.6-0.6-4.4,0.8-5.6c0.6-0.5,0.5,1,0.5,1.3c0.3,5.2,3.1,11.7,7.6,14.6c0.3,0.2,0.8-0.2,0.5-0.5c-2.9-4-4.1-9.3-3.6-12.3
		c0.1-0.3,0.5-0.4,0.7-0.1c1.3,2.4,2.9,4.7,4.8,6.6c0.7,0.7,1.4,1.5,2.1,2.2c0.7,0.6,1.4,1.2,2.1,1.8c0.3,0.2,1.5,1,1.7,0.3
		c0.1-0.4-0.2-0.7-0.5-0.9c-1.1-0.9-1.9-2-2.7-3.2c-0.9-1.2-1.8-2.5-2.6-3.8c-0.9-1.5-1.9-3-2.2-4.7c-0.1-0.5-0.1-1.1,0.5-1.2
		c2.9-0.8,4.2-4.2,4.5-5c0.9-2.4-4.9-2.9-6.6-4c0,0-0.1,0-0.1-0.1l-5.8-2.9C125.7,314.1,123.1,315.2,123,315.3z"/>
	<path class="st0" d="M186.3,319.1c-0.7,0.8-6.9,6.1-3.6,18c0.1,0.4,0.7,0.3,0.7-0.1c-0.1-3.4,1.3-7.9,3.5-10.1
		c0.2-0.2,0.6-0.1,0.6,0.2c0.8,3.7,0.9,8.7,7.3,13.6c0.3,0.2,0.6-0.2,0.5-0.5c-1.1-2.1-3.7-7.7-3.2-11.5c0-0.4,0.6-0.4,0.7-0.1
		c1.1,3,4.4,10.6,11.5,12.3c0.4,0.1,0.7-0.4,0.4-0.6c-4.1-2.9-6.8-7.5-7.4-10.4c-0.1-0.3,0.3-0.6,0.6-0.3c1.9,1.7,4.6,5.5,11.5,7.5
		c0.4,0.1,0.7-0.4,0.3-0.7c-2.6-1.9-3.8-3.3-6.2-5.5c-1.6-1.5-3.3-3.9-3.6-6.4c-0.2-1.4,1.3-3.3,1.3-4.2c0.1-2.6-4.3-1.9-6.2-2.4
		c0,0-0.1,0-0.1,0l-6.4-0.9C188.4,317.1,186.4,319,186.3,319.1z"/>
	<path class="st0" d="M238.7,317.8c-0.5,1-3.7,8.1,2.5,18.7c0.2,0.4,0.8,0.1,0.7-0.3c-1-3.2-2.1-8.4-0.6-11.1c0.2-0.3,0.5-0.2,0.7,0
		c1.7,3.4,3.2,8.1,10.6,11.3c0.3,0.1,0.6-0.3,0.3-0.6c-1.6-1.7-5.6-6.5-6.1-10.2c-0.1-0.4,0.5-0.6,0.7-0.3c1.8,2.6,7,9.1,14.3,8.9
		c0.4,0,0.5-0.6,0.2-0.7c-4.7-1.7-8.5-5.4-9.9-8.2c-0.2-0.3,0.2-0.6,0.5-0.5c2.2,1.2,8.6,4.2,15.8,4.3c0.4,0,0.5-0.6,0.1-0.7
		c-3-1.1-6-2.3-8.9-3.8c-2-1-5.4-2.8-6.4-5.2c-0.5-1.3,0.4-3.6,0.2-4.4c-0.6-2.5-4.6-0.7-6.7-0.7c0,0-0.1,0-0.1,0l-6.4,0.8
		C240.2,315.4,238.7,317.7,238.7,317.8z"/>
	<path class="st0" d="M298,299.7c0.2,1.1,2.1,8.7,13.6,13.1c0.4,0.2,0.7-0.4,0.3-0.6c-2.8-1.9-6.9-5.3-7.4-8.3
		c0-0.3,0.3-0.5,0.6-0.4c3.5,1.6,7.5,4.4,15.3,2.3c0.3-0.1,0.2-0.6-0.1-0.7c-2.3-0.4-8.4-1.6-11.1-4.2c-0.3-0.3,0-0.7,0.4-0.6
		c3.1,1,11.1,2.8,16.7-1.9c0.3-0.2,0.1-0.8-0.3-0.7c-4.7,1.5-10.1,1.1-12.8-0.3c-0.3-0.2-0.3-0.6,0.1-0.7c2.5-0.5,9.4-2.1,15.1-6.4
		c0.3-0.2,0.1-0.8-0.3-0.6c-3.1,1-6.2,1.9-9.4,2.5c-2.2,0.4-6,1.1-8.2-0.1c-1.2-0.7-1.9-3-2.6-3.6c-2-1.6-4.1,2.3-5.7,3.6
		c0,0-0.1,0.1-0.1,0.1l-4.5,4.6C297.7,296.9,298,299.7,298,299.7z"/>
	<path class="st0" d="M330.4,276.3c0.4,1,4.1,7,15.8,9.8c0.5,0.1,0.7-0.5,0.3-0.8c-3-1.5-5.8-3.1-6.8-5.9c-0.1-0.3,0.2-0.6,0.5-0.5
		c3.7,1.1,6.9,2.2,14-0.8c0.3-0.1,0.1-0.7-0.2-0.7c-2.3,0-9,0.5-12.2-1.6c-0.4-0.2-0.2-0.8,0.3-0.7c3.3,0.5,11.3,1,16-4.3
		c0.3-0.3-0.1-0.8-0.5-0.6c-4.4,2.1-9.6,2.4-12.4,1.6c-0.4-0.1-0.4-0.6,0-0.8c2.5-0.9,8.8-2.3,13.7-7.4c0.3-0.3-0.1-0.8-0.4-0.6
		c-2.9,1.5-5.8,2.8-8.9,3.9c-2.1,0.7-5.6,0.8-8-0.1c-1.3-0.5-2.3-2.7-3.1-3.2c-2.2-1.3-3.7,2.9-5.1,4.4c0,0-0.1,0.1-0.1,0.1
		l-3.8,5.2c0,0,0,0,0,0C329.6,273.6,330.3,276.2,330.4,276.3z"/>
	<path class="st0" d="M374.1,251.5c0.6,0.9,5.5,7,17.8,6.3c0.4,0,0.5-0.6,0.1-0.7c-3.3-0.6-8.5-2-10.1-4.5c-0.2-0.3,0-0.6,0.3-0.6
		c3.8,0,8.7,0.9,14.9-4.3c0.3-0.2,0-0.7-0.4-0.6c-2.3,0.6-8.3,2-11.9,0.8c-0.4-0.1-0.3-0.7,0.1-0.7c3.2-0.4,11.3-2,14.5-8.7
		c0.2-0.3-0.2-0.7-0.5-0.5c-3.7,3.4-8.7,5.1-11.8,5c-0.3,0-0.5-0.5-0.2-0.7c2.1-1.5,7.7-5.8,11.1-12.1c0.2-0.4-0.3-0.7-0.6-0.5
		c-2.4,2.2-4.8,4.3-7.5,6.2c-1.8,1.3-5,3.5-7.5,3.3c-1.4-0.1-3-2-3.8-2.2c-2.5-0.6-2.8,3.8-3.7,5.6c0,0,0,0.1,0,0.1l-2.2,6.1
		C372.7,249,374.1,251.4,374.1,251.5z"/>
	<path class="st1" d="M383,226.8c-0.4-1.1-0.8-2.2-1.3-3.3c-3.9-8.5-10.2-15.5-15.1-23.4c-7.3-11.9-8.1-25.2-12.8-38
		c-9.8-27-36.8-36.7-63.2-39.2c-5.2-0.5-10.5-0.8-15.7-0.9c-0.3,0-0.5-0.5-0.2-0.7c7.4-4.8,11.5-13.5,11.9-22.2
		c0.4-8-2.1-15.9-6.1-22.8c-7.2-12.5-19.9-22.1-34.2-23.7c-20.6-2.4-40,11.6-51.8,28.6s-18.2,37.2-27.5,55.7
		c-1.4,2.9-3.1,5.8-5.6,7.7c-4.4,3.3-10.6,2.8-15.8,0.8c-5.4-2.1-10.2-5.8-15.6-8c-0.2-0.1-0.5-0.1-0.7-0.1
		c-1.6,0.1-1.8,1.1-1.9,2.1c-0.4,10.4,0.1,16.4-2.8,30.1c-0.3,1.4-0.2,3,0.5,4.3c1.2,1.9,3.9,2.2,6.1,2.2c8.3,0,16.7-0.6,25-1.7
		c0.4,0,0.5,0.4,0.3,0.6c-5.8,4.5-11.8,8.8-18,12.8c-3.3,2.1-6.7,4.1-10.1,5.9c-3.2,1.7-6.6,3.8-10.2,4.4c-3.7,0.7-7.5-0.5-11.2-1.1
		c-8.1-1.5-17.2-1.8-26.2,0.4c-0.3,0.1-0.6-0.3-0.4-0.6c4.5-7.8,1.6-13-4.5-16.5c-6.2-3.6-15.4-1.1-18.5,5.3
		c-3,6.2-0.6,14.5,7.2,16.5c0.3,0.1,0.3,0.4,0.1,0.6c-4.3,2.8-8.5,6.2-12.2,9.7c-7.8,7.4-13.7,18.4-12.2,29.4
		c0.5,3.7,1.7,7.7,4.2,10.6c2.1,2.4,5.1,3.7,8,4.9c0.5,0.2,0.8,0.7,0.8,1.3c-0.1,4.7-0.4,9.6,0.7,14.1c1.1,4.1,2.8,8.1,5.1,11.7
		c1.1,1.8,2.4,3.5,3.8,5c4,4.6,9.1,8.3,14.7,10.7c6.9,3,14.4,4.4,21.8,4.2c3.3-0.1,6.6-0.5,9.8-1.1c3-0.6,6-1.6,9.1-2
		c2.2-0.3,2,0.9,1.5,2.6c-1.4,4.6,0.2,9.8,3.3,13.3c1.1,1.2,2.4,2.2,3.9,3c13.6,7,27.7-4.8,37.2-13.4c4.5-4.1,9.1-9,16-8.5
		c1.5,0.1,3,0.6,4.2,1.5c5.7,4.3,2,10.4,3.3,15.8c1.1,4.5,5.7,7.6,10.3,8c4.6,0.4,9.2-1.4,13.2-3.8c2.5-1.5,5-3.3,7.9-3.7
		c3.6-0.5,7,1.3,10.2,2.7c6.4,2.9,13.5,5,20.6,2.5c1.3-0.4,2.5-1.1,3.6-1.9c7.3-5.4,5.7-13.1,4-20c-1.2-4.8-2.4-9.7-3.5-14.5
		c0-0.5-0.3-1.1-0.4-1.6c-0.1-0.6-0.3-1.2-0.4-1.8c-0.3-1.2-0.6-2.4-0.9-3.5c-0.3-1.1-0.6-2.3-0.8-3.4c-0.2-0.6-1.5-3.9-0.2-4
		c0.3,0,0.8,0.4,1.1,0.6c9.8,6.7,16.3,17.3,26.5,23.4c7.8,4.7,19.5,7.2,26.6-0.1c6.5-6.5,5.5-17.2,3.7-26.3
		c3.8,7.4,13.2,10,20.7,7.8c5.1-1.5,9.3-5.3,12.1-9.7c1.3-2.1,2.4-4.4,3.1-6.8c0.5-1.9,0.9-3.9,2-5.5c1.3-1.8,3.4-1.9,5.4-1.8
		c8.9,0.7,18.9,2.7,25.9-2.8C384.8,244.1,385.5,234.7,383,226.8z"/>
	<path class="st2" d="M130,144.8c0.2-1.9,0.9-3.4,2.8-2.4c3.8,2,7.6,4.2,11.8,5.5c4.4,1.3,9,1.7,13.1,3.8c4.8,2.4,6.4,8.8,4.9,13.6
		c-1.4,4.5-8.2,5.5-12.1,6.3c-5.4,1.1-11,1.3-16.5,0.9c-3.5-0.3-7.1,0.2-6.4-4.2c0.5-2.8,1.6-5.5,2-8.3
		C130.3,154.9,129.4,149.9,130,144.8z"/>
	<path class="st1" d="M83.8,279.8c0-3.5,1.5-5.7,5.2-5.8c4.4-0.1,7.6,2.7,7.6,6.3c0,2.7-3.6,6.3-6.4,6.4
		C86.6,286.8,83.8,283.8,83.8,279.8z"/>
	<path class="st3" d="M108.9,229.9c-0.3,0-0.6,0-0.9-0.1c-6-0.4-12.4-0.1-18.4,1c-11,2-19.2,8.2-27.3,15.5c-2.7,2.4-5,5.1-8.5,6.2
		c-6.6,2.1-10.2-3.1-11.2-9c-1.3-7.4,0.9-14.8,4.8-21.1c4.7-7.4,11.2-12.7,18.3-17.6c2.5-1.8,3.2-4.3,0-5.3
		c-3.7-1.2-6.8-3.5-7.2-7.7c-0.4-3.7,1.8-7.5,4.9-9.4c3.8-2.3,8.8-2.2,12.5,0.3c4.6,3.1,5.5,7.5,3,12.1c-1,1.8-2.6,3.2-1.4,5
		c0.5,0.8,3.9-0.4,5.4-0.7c15.4-3,34.4-1.3,45.5,11.3c2.2,2.5,3.9,5.5,3.4,8.9c-0.5,3.9-3.4,7.3-7,8.8
		C119.8,230.2,114.2,230.1,108.9,229.9z"/>
	<path class="st0" d="M378.8,227.4c-2.6-6.7-6.5-12.8-11-18.4c-3.2-4-7.4-7.4-9.7-12.1c-2.5-4.9-2.7-10.8-3.4-16.1
		c-0.8-5.4-1.8-10.6-3.9-15.7c-13.8-34.6-52.7-41.5-85.9-37.2c-24,3.1-46.9,12.2-67,25.7c-24.3,16.4-48.5,31.7-74.7,45.1
		c-2.2,1.1-2.2,2.8,0,4c5.7,3,10.2,9.5,10,16.2c-0.1,6.1-4.2,10.4-9.9,12.1c-7.7,2.3-16.6,0.8-24.6,1.5c-8.6,0.7-17.4,2.6-24.8,7.4
		c-1.4,0.9-10.2,7.8-8.6,8.9c1.7,1.3,3.9,5,5.5,6.6c0.5,0.5,3-0.5,3.6-0.6c3.9-0.5,8.2,0.9,10.4,4.4c1.9,2.9,3.1,1.6,6.3,1.5
		c2.3-0.1,3.2-3.2,4.3-4.7c2-2.6,5.6-3.9,8.8-3.7c3,0.2,4.5,0.7,6.2-2.6c1.8-3.4,4-6.6,6.4-9.6c2.6-3.1,5.6-6.3,9.5-8
		c3.7-1.6,8.8-1.9,12,1c2.9,2.7,3.6,10.4-1.3,11.4c-1.6,0.3-4.9-0.6-4.4-2.8c0.2-0.9,1-1.4,2-1.3c1.4,0.2,1.9,0,2-1.5
		c0.2-2.9-1.6-5-4.5-5.1c-4.4-0.1-9.9,4.1-13,8.3c-1.4,2-3,4.6-4.2,6.7c-1.2,2.1-2.1,3.8-3.1,5.9c-0.6,1.2-0.6,2.4-0.3,3.7
		c0.7,2.7,0.2,5.6-1.4,7.9c-3.5,4.9-11.1,5.5-15.1,0.8c-3.3-4-7.1-3.8-10.2,0.6c-2.7,3.7-8.1,5.9-12.5,3.8
		c-4.4-2.1-6.7-8.4-4.5-12.7c0.7-1.4-3.7-7.5-5.2-7.5c-0.4,0-0.8,0.3-1.1,0.5c-2.5,1.5-4.1,4.5-5.1,7.2c-2.9,7.9,0.2,17.2,4.5,24
		c4.1,6.6,10.2,11.7,17.2,14.9c0.7,0.3,1.5,0.7,2.3,1c3.5,1.4,7.1,2.3,10.8,2.9c3.8,0.5,7.9,0.7,11.7,0.1c7.9-1.2,15.7-3.1,23.4-5
		c15.3-3.8,30.8-7.5,46.7-5.3c0.6,0.1,1.1,0.2,1.7,0.3c5.9,1,10.8,4.1,16.1,6.6c9,4.2,18.1,8.3,27.2,12.5c6.8,3.2,13.8,6.2,21.1,8
		c4.5,1.1,10.4-0.2,13.6-3.6c3.6-3.7,2.7-9.2,2-13.9c-0.8-5.5-2.3-10.8-3.5-16.2c-1.3-5.4-3-10.1-2.6-15.6c0.2-3.5,3.5-1.6,4.6-0.9
		c3.4,2.1,6.4,5.1,9.3,8.1c4.1,4,8.1,8.1,12.6,11.6c1.3,1,2.6,1.9,3.9,2.8c4.5,2.9,9.2,5.8,14.8,4.9c6.8-1,12.3-4.1,13-13.4
		c0.6-8-1.7-15.9-3.4-23.6c-0.2-0.8-0.8-2.9-0.2-3.6c0.6-0.6,1.2,0.3,1.6,1c3,4.7,5.1,10.3,9.5,14c3.9,3.2,9.1,4.7,14,3.1
		c5.5-1.7,9.5-6.5,11.8-11.6c0.4-0.8,0.7-1.7,1-2.6c3.2-9.2,2.9-19.1,4.1-28.6c0.2-1.3,0.3-2.6,0.7-3.9c0.1-0.4,0.6-0.9,0.9-0.3
		c0.4,0.7,0.3,2.8,0.2,4c-0.1,3.3,0.1,6.5,0.1,9.8c0.1,1.5,0.2,3,0.6,4.4c2,6.5,11.8,6,17.2,6c13.8,0,16.7-8.3,15.1-18.6
		C379.8,230.5,379.3,228.9,378.8,227.4z M89,287.3c-3.7,0.1-6.5-3-6.5-6.9c0-3.5,1.5-5.7,5.2-5.8c4.4-0.1,7.6,2.7,7.6,6.3
		C95.4,283.7,91.8,287.3,89,287.3z"/>
	<path class="st0" d="M199.5,320c-1.5,0-3-0.3-4.3-1c-3-1.5-4.6-4.4-5-7.7c-0.2-1.9-0.5-8,1.5-9.2c0.4-0.2,0.8-0.2,1.2-0.2
		c1.1,0.1,2.2,0.5,3.2,1c5.9,2.6,12,5.5,17.4,8.9c1.1,0.7,1.4,1.5,0.3,2.3C210.1,316.7,204.5,320,199.5,320z"/>
	<path class="st0" d="M122.4,308.4c-0.3-2,0-5.3,1.1-7.2c1.7-2.9,9.2-3.9,12.9-4.5c10-1.7,20-3.3,30.1-3.5c1.2,0,5,0.2,4.9,1.9
		c-0.1,1.1-1.9,2.5-2.6,3.2c-0.9,0.8-1.9,1.6-2.9,2.4c-4.1,3.6-8.4,6.9-12.7,10.2c-6.7,5-15.1,9.3-22.7,7.2
		C126,316.8,123.1,312.8,122.4,308.4z"/>
	<path class="st2" d="M170.8,165.3c-1.7,0.6-3.5,0.8-3.8-1.2c-0.4-2.4-0.4-4.9-0.8-7.4c-0.3-1.5-0.8-2.9-1.6-4.2
		c-0.8-1.3-2.8-2-1.6-3.6c6.1-8.2,10.9-20.6,15.4-29.6c6.6-13.3,12.4-27,21.5-38.8c10.3-13.3,23.1-23.1,40.9-23.2
		c14.8-0.1,26.2,6.6,34,19.3c3.5,5.8,6.3,11.8,7.5,18.5c2,11.9-7.3,25.2-19.2,28c-23.8,5.6-46.5,14.1-67.6,26.7
		c-4.4,2.6-8.8,5.4-13,8.3C178.7,160.6,175.1,163.7,170.8,165.3z"/>
</g>
</svg>
